# Blender v3.0.0 OBJ File: ''
# www.blender.org
mtllib fence.mtl
o fence
v 0.249523 0.873536 0.113829
v 0.249523 0.530871 0.113829
v 0.127714 0.883204 2.518295
v 0.127714 0.540540 2.518295
v 0.095032 2.499954 2.084919
v 0.090713 1.127877 2.054301
v -0.095032 2.499954 2.084919
v -0.090711 1.127877 2.054301
v 0.095128 2.466367 2.412621
v 0.090327 1.127631 2.367860
v 0.190146 2.483192 2.248691
v 0.181035 1.127760 2.211414
v 0.090737 -0.001340 2.407194
v 0.181035 -0.000017 2.250027
v -0.190146 2.483192 2.248691
v -0.181035 1.127760 2.211414
v -0.095128 2.466367 2.412621
v -0.090326 1.127631 2.367860
v -0.181035 -0.000017 2.250027
v -0.090737 -0.001340 2.407194
v -0.095032 2.499954 2.084919
v -0.090711 1.127877 2.054301
v -0.190146 2.483192 2.248691
v -0.181035 1.127760 2.211414
v -0.090312 0.001330 2.093596
v -0.181035 -0.000017 2.250027
v 0.190146 2.483192 2.248691
v 0.181035 1.127760 2.211414
v 0.095032 2.499954 2.084919
v 0.090713 1.127877 2.054301
v 0.181035 -0.000017 2.250027
v 0.090312 0.001330 2.093596
v -0.095128 2.466367 2.412621
v -0.090326 1.127631 2.367860
v 0.095128 2.466367 2.412621
v 0.090327 1.127631 2.367860
v 0.095032 2.499954 2.084919
v 0.095128 2.466367 2.412621
v 0.190146 2.483192 2.248691
v -0.095032 2.499954 2.084919
v -0.095128 2.466367 2.412621
v -0.190146 2.483192 2.248691
v -0.090326 1.127631 2.367860
v -0.090737 -0.001340 2.407194
v 0.090327 1.127631 2.367860
v 0.090737 -0.001340 2.407194
v 0.090713 1.127877 2.054301
v 0.090312 0.001330 2.093596
v -0.090711 1.127877 2.054301
v -0.090312 0.001330 2.093596
v 0.095235 2.441259 -2.407026
v 0.090443 1.127619 -2.380558
v -0.095235 2.441259 -2.407026
v -0.090443 1.127619 -2.380558
v 0.090668 -0.000930 -2.407918
v -0.090668 -0.000930 -2.407918
v 0.094909 2.525292 -2.087980
v 0.090706 1.127792 -2.067066
v 0.190011 2.483598 -2.247286
v 0.181033 1.127739 -2.224045
v 0.090372 0.000926 -2.094342
v 0.181033 -0.000009 -2.250875
v -0.190011 2.483598 -2.247286
v -0.181033 1.127739 -2.224045
v -0.094909 2.525292 -2.087980
v -0.090706 1.127792 -2.067066
v -0.181033 -0.000009 -2.250875
v -0.090372 0.000926 -2.094342
v -0.095235 2.441259 -2.407026
v -0.090443 1.127619 -2.380558
v -0.190011 2.483598 -2.247286
v -0.181033 1.127739 -2.224045
v 0.190011 2.483598 -2.247286
v 0.181033 1.127739 -2.224045
v 0.095235 2.441259 -2.407026
v 0.090443 1.127619 -2.380558
v 0.181033 -0.000009 -2.250875
v 0.090668 -0.000930 -2.407918
v -0.094909 2.525292 -2.087980
v -0.090706 1.127792 -2.067066
v 0.094909 2.525292 -2.087980
v 0.090706 1.127792 -2.067066
v -0.090372 0.000926 -2.094342
v 0.090372 0.000926 -2.094342
v -0.095235 2.441259 -2.407026
v -0.190011 2.483598 -2.247286
v 0.095235 2.441259 -2.407026
v 0.190011 2.483598 -2.247286
v -0.094909 2.525292 -2.087980
v 0.094909 2.525292 -2.087980
v -0.090443 1.127619 -2.380558
v -0.090668 -0.000930 -2.407918
v -0.181033 1.127739 -2.224045
v -0.181033 -0.000009 -2.250875
v 0.263294 0.540540 2.518295
v 0.385101 0.530871 0.113829
v 0.263294 0.883204 2.518295
v 0.385101 0.873536 0.113828
v 0.263292 0.540540 -2.499250
v 0.249523 0.530871 0.113829
v 0.127714 0.540540 -2.499250
v 0.385101 0.530871 0.113829
v 0.127714 0.540540 2.518295
v 0.263294 0.540540 2.518295
v 0.263294 0.883204 2.518295
v 0.127714 0.883204 2.518295
v 0.263294 0.540540 2.518295
v 0.127714 0.540540 2.518295
v 0.263292 0.540540 -2.499250
v 0.127714 0.540540 -2.499250
v 0.263292 0.883205 -2.499250
v 0.127714 0.883205 -2.499250
v 0.263294 0.883204 2.518295
v 0.249523 0.873536 0.113829
v 0.127714 0.883204 2.518295
v 0.385101 0.873536 0.113828
v 0.127714 0.883205 -2.499250
v 0.263292 0.883205 -2.499250
v 0.127714 2.150782 2.516877
v 0.090402 1.846797 0.098282
v 0.127714 1.808118 2.516877
v 0.090402 2.189461 0.098282
v 0.127714 1.808119 -2.566279
v 0.127714 2.150783 -2.566279
v 0.263294 1.808118 2.516877
v 0.225980 1.846797 0.098282
v 0.263294 2.150782 2.516877
v 0.225980 2.189461 0.098282
v 0.263292 1.808119 -2.566279
v 0.263292 2.150783 -2.566279
v 0.263292 1.808119 -2.566279
v 0.090402 1.846797 0.098282
v 0.127714 1.808119 -2.566279
v 0.225980 1.846797 0.098282
v 0.127714 1.808118 2.516877
v 0.263294 1.808118 2.516877
v 0.263294 2.150782 2.516877
v 0.127714 2.150782 2.516877
v 0.263294 1.808118 2.516877
v 0.127714 1.808118 2.516877
v 0.263292 1.808119 -2.566279
v 0.127714 1.808119 -2.566279
v 0.263292 2.150783 -2.566279
v 0.127714 2.150783 -2.566279
v 0.263294 2.150782 2.516877
v 0.090402 2.189461 0.098282
v 0.127714 2.150782 2.516877
v 0.225980 2.189461 0.098282
v 0.127714 2.150783 -2.566279
v 0.263292 2.150783 -2.566279
v 0.127714 1.518825 2.514204
v 0.127714 1.176161 0.288951
v 0.127714 1.176160 2.514204
v 0.127714 1.518825 0.288950
v 0.127714 1.218002 -2.569801
v 0.127714 1.560404 -2.551851
v 0.263294 1.176160 2.514204
v 0.263292 1.176161 0.288951
v 0.263294 1.518825 2.514204
v 0.263294 1.518825 0.288950
v 0.263292 1.218002 -2.569801
v 0.263292 1.560404 -2.551851
v 0.263292 1.218002 -2.569801
v 0.127714 1.176161 0.288951
v 0.127714 1.218002 -2.569801
v 0.263292 1.176161 0.288951
v 0.127714 1.176160 2.514204
v 0.263294 1.176160 2.514204
v 0.263294 1.518825 2.514204
v 0.127714 1.518825 2.514204
v 0.263294 1.176160 2.514204
v 0.127714 1.176160 2.514204
v 0.263292 1.218002 -2.569801
v 0.127714 1.218002 -2.569801
v 0.263292 1.560404 -2.551851
v 0.127714 1.560404 -2.551851
v 0.263294 1.518825 2.514204
v 0.127714 1.518825 0.288950
v 0.127714 1.518825 2.514204
v 0.263294 1.518825 0.288950
v 0.127714 1.560404 -2.551851
v 0.263292 1.560404 -2.551851
v 0.385101 0.530871 0.113829
v 0.263292 0.540540 -2.499250
v 0.385101 0.873536 0.113828
v 0.263292 0.883205 -2.499250
v 0.127714 0.883205 -2.499250
v 0.127714 0.540540 -2.499250
v 0.249523 0.873536 0.113829
v 0.249523 0.530871 0.113829
v 0.090312 0.001330 2.093596
v -0.181035 -0.000017 2.250027
v -0.090312 0.001330 2.093596
v 0.181035 -0.000017 2.250027
v -0.090737 -0.001340 2.407194
v 0.090737 -0.001340 2.407194
v 0.090668 -0.000930 -2.407918
v -0.181033 -0.000009 -2.250875
v -0.090668 -0.000930 -2.407918
v 0.181033 -0.000009 -2.250875
v -0.090372 0.000926 -2.094342
v 0.090372 0.000926 -2.094342
vt 0.329137 0.807800
vt 0.321978 0.807801
vt 0.329034 0.757501
vt 0.321984 0.757535
vt 0.207874 0.812410
vt 0.208284 0.783884
vt 0.211867 0.812450
vt 0.212039 0.783910
vt 0.199942 0.811722
vt 0.200763 0.783770
vt 0.203893 0.812081
vt 0.204528 0.783833
vt 0.200752 0.760214
vt 0.204530 0.760353
vt 0.193752 0.812219
vt 0.193202 0.783880
vt 0.197713 0.811871
vt 0.196984 0.783828
vt 0.193253 0.760348
vt 0.196999 0.760214
vt 0.211867 0.812450
vt 0.212039 0.783910
vt 0.215854 0.812203
vt 0.215806 0.783902
vt 0.212084 0.760497
vt 0.215854 0.760365
vt 0.203893 0.812081
vt 0.204528 0.783833
vt 0.207874 0.812410
vt 0.208284 0.783884
vt 0.204530 0.760353
vt 0.208294 0.760493
vt 0.197713 0.811871
vt 0.196984 0.783828
vt 0.201689 0.811754
vt 0.200763 0.783770
vt 0.435640 0.824907
vt 0.430026 0.820950
vt 0.433976 0.821309
vt 0.433358 0.828147
vt 0.427741 0.824193
vt 0.429409 0.827792
vt 0.196984 0.783828
vt 0.196999 0.760214
vt 0.200763 0.783770
vt 0.200752 0.760214
vt 0.208284 0.783884
vt 0.208294 0.760493
vt 0.212039 0.783910
vt 0.212084 0.760497
vt 0.194803 0.834668
vt 0.222286 0.834698
vt 0.194809 0.838617
vt 0.222286 0.838490
vt 0.245876 0.834815
vt 0.245859 0.838570
vt 0.193202 0.826881
vt 0.222302 0.827141
vt 0.193984 0.830786
vt 0.222288 0.830913
vt 0.245729 0.827303
vt 0.245800 0.831064
vt 0.194133 0.819022
vt 0.222398 0.819608
vt 0.193252 0.822906
vt 0.222340 0.823374
vt 0.245876 0.819762
vt 0.245754 0.823524
vt 0.194809 0.838617
vt 0.222286 0.838490
vt 0.194004 0.842507
vt 0.222279 0.842268
vt 0.193984 0.830786
vt 0.222288 0.830913
vt 0.194803 0.834668
vt 0.222286 0.834698
vt 0.245800 0.831064
vt 0.245876 0.834815
vt 0.193252 0.822906
vt 0.222340 0.823374
vt 0.193202 0.826881
vt 0.222302 0.827141
vt 0.245754 0.823524
vt 0.245729 0.827303
vt 0.452918 0.775388
vt 0.449473 0.777364
vt 0.452918 0.771417
vt 0.449473 0.769442
vt 0.446040 0.775381
vt 0.446040 0.771424
vt 0.222286 0.838490
vt 0.245859 0.838570
vt 0.222279 0.842268
vt 0.245751 0.842319
vt 0.339089 0.757653
vt 0.339067 0.807807
vt 0.331818 0.757635
vt 0.331963 0.807806
vt 0.339089 0.862298
vt 0.341893 0.807801
vt 0.341917 0.862428
vt 0.339067 0.807807
vt 0.341917 0.757511
vt 0.339089 0.757653
vt 0.437675 0.851838
vt 0.437675 0.854665
vt 0.430532 0.851838
vt 0.430532 0.854665
vt 0.448867 0.821658
vt 0.446040 0.821658
vt 0.448867 0.814515
vt 0.446040 0.814515
vt 0.331818 0.757635
vt 0.329137 0.807800
vt 0.329034 0.757501
vt 0.331963 0.807806
vt 0.329037 0.862439
vt 0.331821 0.862315
vt 0.294639 0.863581
vt 0.301818 0.813187
vt 0.301792 0.863699
vt 0.294671 0.813179
vt 0.301818 0.757543
vt 0.294664 0.757647
vt 0.284724 0.863737
vt 0.284683 0.813185
vt 0.291811 0.863623
vt 0.291846 0.813181
vt 0.284750 0.757501
vt 0.291837 0.757607
vt 0.284750 0.757501
vt 0.281850 0.813182
vt 0.281945 0.757536
vt 0.284683 0.813185
vt 0.281919 0.863697
vt 0.284724 0.863737
vt 0.446040 0.807268
vt 0.448867 0.807268
vt 0.446040 0.814412
vt 0.448867 0.814412
vt 0.430428 0.851838
vt 0.430428 0.854665
vt 0.423285 0.851838
vt 0.423285 0.854665
vt 0.291811 0.863623
vt 0.294671 0.813179
vt 0.294639 0.863581
vt 0.291846 0.813181
vt 0.294664 0.757647
vt 0.291837 0.757607
vt 0.314713 0.863453
vt 0.321875 0.817103
vt 0.321837 0.863457
vt 0.314728 0.817047
vt 0.321875 0.757502
vt 0.314732 0.757772
vt 0.304768 0.863453
vt 0.304752 0.817098
vt 0.311893 0.863452
vt 0.311899 0.817046
vt 0.304754 0.757501
vt 0.311911 0.757772
vt 0.304754 0.757501
vt 0.301927 0.817099
vt 0.301921 0.757501
vt 0.304752 0.817098
vt 0.301944 0.863454
vt 0.304768 0.863453
vt 0.448867 0.807165
vt 0.446040 0.807165
vt 0.448867 0.800021
vt 0.446040 0.800021
vt 0.448867 0.799918
vt 0.446040 0.799918
vt 0.448867 0.792770
vt 0.446040 0.792770
vt 0.311893 0.863452
vt 0.314728 0.817047
vt 0.314713 0.863453
vt 0.311899 0.817046
vt 0.314732 0.757772
vt 0.311911 0.757772
vt 0.339067 0.807807
vt 0.339089 0.862298
vt 0.331963 0.807806
vt 0.331821 0.862315
vt 0.329037 0.862439
vt 0.321990 0.862407
vt 0.329137 0.807800
vt 0.321978 0.807801
vt 0.446040 0.779359
vt 0.449302 0.785015
vt 0.446040 0.783124
vt 0.449302 0.777467
vt 0.452578 0.783133
vt 0.452578 0.779350
vt 0.446040 0.787003
vt 0.449314 0.792667
vt 0.446040 0.790783
vt 0.449314 0.785119
vt 0.452578 0.790777
vt 0.452578 0.787009
vn -0.9987 0.0000 -0.0506
vn 0.0000 0.0223 -0.9998
vn 0.8655 -0.0197 0.5006
vn 0.8654 -0.0197 0.5007
vn 0.8660 0.0174 0.4998
vn 0.8659 0.0174 0.4998
vn -0.8654 -0.0197 0.5007
vn -0.8653 -0.0197 0.5008
vn -0.8660 0.0174 0.4998
vn -0.8659 0.0174 0.4999
vn -0.8659 0.0082 -0.5002
vn -0.8660 0.0082 -0.5000
vn -0.8658 -0.0174 -0.5002
vn -0.8658 -0.0174 -0.5000
vn 0.8659 0.0082 -0.5002
vn 0.8660 0.0081 -0.5000
vn 0.8658 0.0082 -0.5002
vn 0.8660 0.0082 -0.5000
vn 0.8658 -0.0174 -0.5001
vn 0.0000 -0.0334 0.9994
vn -0.0001 0.9948 0.1020
vn -0.0003 0.9948 0.1020
vn 0.0001 0.9948 0.1020
vn 0.0003 0.9948 0.1020
vn 0.0000 0.0348 0.9994
vn 0.0000 -0.0349 -0.9994
vn 0.0000 -0.0201 -0.9998
vn 0.0000 0.0242 -0.9997
vn 0.8629 0.0040 0.5054
vn 0.8660 -0.0121 0.4999
vn 0.8659 -0.0121 0.5000
vn -0.8629 0.0040 0.5054
vn -0.8659 -0.0121 0.5000
vn -0.8660 -0.0121 0.4999
vn -0.8634 -0.0138 -0.5043
vn -0.8635 -0.0138 -0.5042
vn 0.8634 -0.0138 -0.5042
vn 0.8635 -0.0138 -0.5042
vn 0.8634 -0.0138 -0.5044
vn 0.8661 0.0121 -0.4997
vn 0.0000 0.0150 0.9999
vn 0.0000 0.0149 0.9999
vn 0.0001 0.0149 0.9999
vn 0.0000 -0.0242 0.9997
vn 0.0000 0.9666 -0.2562
vn 0.0000 0.9666 -0.2561
vn 0.0000 0.9674 -0.2532
vn -0.8660 0.0121 -0.4999
vn -0.8661 0.0121 -0.4998
vn -0.8660 0.0121 -0.5000
vn -0.8661 0.0121 -0.4997
vn 0.9987 0.0000 0.0506
vn 0.0000 -1.0000 -0.0037
vn 0.0000 -1.0000 0.0040
vn 0.0000 -0.0000 1.0000
vn 0.0000 0.0000 -1.0000
vn -0.0000 1.0000 -0.0040
vn 0.0000 1.0000 0.0037
vn -0.9999 0.0000 0.0154
vn -0.9999 0.0000 -0.0140
vn 0.9999 0.0000 -0.0154
vn 0.9999 0.0000 0.0140
vn 0.0000 -0.9999 0.0145
vn 0.0000 -0.9999 -0.0160
vn 0.0000 0.9999 0.0160
vn 0.0000 0.9999 -0.0145
vn -1.0000 0.0000 0.0000
vn 1.0000 0.0000 -0.0000
vn 0.0000 -0.9999 -0.0146
vn 0.0000 -1.0000 -0.0000
vn 0.0000 0.0524 -0.9986
vn 0.0000 1.0000 0.0000
vn 0.0000 0.9999 0.0146
vn 0.9989 -0.0000 -0.0466
vn -0.9989 0.0000 0.0466
vn 0.0000 -1.0000 -0.0086
vn 0.0000 -1.0000 -0.0085
vn 0.0000 -1.0000 -0.0084
vn 0.0000 -1.0000 0.0059
vn 0.0000 -1.0000 0.0060
usemtl LOW-POLY-COLORS
s 1
f 1/1/1 2/2/1 3/3/1
f 3/3/1 2/2/1 4/4/1
f 5/5/2 6/6/2 7/7/2
f 7/7/2 6/6/2 8/8/2
f 9/9/3 10/10/4 11/11/4
f 11/11/4 10/10/4 12/12/4
f 10/10/4 13/13/5 12/12/4
f 12/12/4 13/13/5 14/14/6
f 15/15/7 16/16/7 17/17/8
f 17/17/8 16/16/7 18/18/7
f 16/16/7 19/19/9 18/18/7
f 18/18/7 19/19/9 20/20/10
f 21/21/11 22/22/12 23/23/12
f 23/23/12 22/22/12 24/24/12
f 22/22/12 25/25/13 24/24/12
f 24/24/12 25/25/13 26/26/14
f 27/27/15 28/28/16 29/29/17
f 29/29/17 28/28/16 30/30/18
f 28/28/16 31/31/19 30/30/18
f 30/30/18 31/31/19 32/32/19
f 33/33/20 34/34/20 35/35/20
f 35/35/20 34/34/20 36/36/20
f 37/37/21 38/38/21 39/39/22
f 40/40/23 38/38/21 37/37/21
f 40/40/23 41/41/23 38/38/21
f 42/42/24 41/41/23 40/40/23
f 43/43/25 44/44/25 45/45/25
f 45/45/25 44/44/25 46/46/25
f 47/47/26 48/48/26 49/49/26
f 49/49/26 48/48/26 50/50/26
f 51/51/27 52/52/27 53/53/27
f 53/53/27 52/52/27 54/54/27
f 52/52/27 55/55/28 54/54/27
f 54/54/27 55/55/28 56/56/28
f 57/57/29 58/58/29 59/59/29
f 59/59/29 58/58/29 60/60/29
f 58/58/29 61/61/30 60/60/29
f 60/60/29 61/61/30 62/62/31
f 63/63/32 64/64/32 65/65/32
f 65/65/32 64/64/32 66/66/32
f 64/64/32 67/67/33 66/66/32
f 66/66/32 67/67/33 68/68/34
f 69/69/35 70/70/36 71/71/36
f 71/71/36 70/70/36 72/72/35
f 73/73/37 74/74/38 75/75/39
f 75/75/39 74/74/38 76/76/38
f 74/74/38 77/77/40 76/76/38
f 76/76/38 77/77/40 78/78/40
f 79/79/41 80/80/42 81/81/41
f 81/81/41 80/80/42 82/82/43
f 80/80/42 83/83/44 82/82/43
f 82/82/43 83/83/44 84/84/44
f 85/85/45 86/86/46 87/87/45
f 87/87/45 86/86/46 88/88/45
f 86/86/46 89/89/47 88/88/45
f 88/88/45 89/89/47 90/90/47
f 91/91/48 92/92/49 93/93/50
f 93/93/50 92/92/49 94/94/51
f 95/95/52 96/96/52 97/97/52
f 97/97/52 96/96/52 98/98/52
f 99/99/53 100/100/53 101/101/53
f 102/102/53 100/100/53 99/99/53
f 102/102/53 103/103/54 100/100/53
f 104/104/54 103/103/54 102/102/53
f 105/105/55 106/106/55 107/107/55
f 107/107/55 106/106/55 108/108/55
f 109/109/56 110/110/56 111/111/56
f 111/111/56 110/110/56 112/112/56
f 113/113/57 114/114/57 115/115/57
f 116/116/57 114/114/57 113/113/57
f 116/116/57 117/117/58 114/114/57
f 118/118/58 117/117/58 116/116/57
f 119/119/59 120/120/59 121/121/59
f 122/122/59 120/120/59 119/119/59
f 122/122/59 123/123/60 120/120/59
f 124/124/60 123/123/60 122/122/59
f 125/125/61 126/126/61 127/127/61
f 127/127/61 126/126/61 128/128/61
f 126/126/61 129/129/62 128/128/61
f 128/128/61 129/129/62 130/130/62
f 131/131/63 132/132/63 133/133/63
f 134/134/63 132/132/63 131/131/63
f 134/134/63 135/135/64 132/132/63
f 136/136/64 135/135/64 134/134/63
f 137/137/55 138/138/55 139/139/55
f 139/139/55 138/138/55 140/140/55
f 141/141/56 142/142/56 143/143/56
f 143/143/56 142/142/56 144/144/56
f 145/145/65 146/146/65 147/147/65
f 148/148/65 146/146/65 145/145/65
f 148/148/65 149/149/66 146/146/65
f 150/150/66 149/149/66 148/148/65
f 151/151/67 152/152/67 153/153/67
f 154/154/67 152/152/67 151/151/67
f 154/154/67 155/155/67 152/152/67
f 156/156/67 155/155/67 154/154/67
f 157/157/68 158/158/68 159/159/68
f 159/159/68 158/158/68 160/160/68
f 158/158/68 161/161/68 160/160/68
f 160/160/68 161/161/68 162/162/68
f 163/163/69 164/164/69 165/165/69
f 166/166/69 164/164/69 163/163/69
f 166/166/69 167/167/70 164/164/69
f 168/168/70 167/167/70 166/166/69
f 169/169/55 170/170/55 171/171/55
f 171/171/55 170/170/55 172/172/55
f 173/173/71 174/174/71 175/175/71
f 175/175/71 174/174/71 176/176/71
f 177/177/72 178/178/72 179/179/72
f 180/180/72 178/178/72 177/177/72
f 180/180/72 181/181/73 178/178/72
f 182/182/73 181/181/73 180/180/72
f 183/183/74 184/184/74 185/185/74
f 185/185/74 184/184/74 186/186/74
f 187/187/75 188/188/75 189/189/75
f 189/189/75 188/188/75 190/190/75
f 191/191/76 192/192/77 193/193/76
f 194/194/77 192/192/77 191/191/76
f 194/194/77 195/195/78 192/192/77
f 196/196/78 195/195/78 194/194/77
f 197/197/79 198/198/79 199/199/79
f 200/200/79 198/198/79 197/197/79
f 200/200/79 201/201/80 198/198/79
f 202/202/80 201/201/80 200/200/79
